# xmcd CD database file
#
# Track frame offsets:
#	150
#	14368
#	31519
#	41397
#	58069
#	78808
#	91529
#	109636
#	123480
#	135802
#	152490
#	162699
#	177697
#	192822
#	205301
#	216511
#
# Disc length: 3165 seconds
#
# Revision: 0
# Processed by: cddbd v1.5.1PL0 Copyright (c) Steve Scherf et al.
# Submitted via: CDex 1.50
#
DISCID=c90c5b10
DTITLE=Stephen Farquhar - Stephen Farquhar
DYEAR=2005
DGENRE=Country
TTITLE0=Could It Be
TTITLE1=City Life
TTITLE2=Serendipity Blue
TTITLE3=Sing It All
TTITLE4=West Conargo Blue
TTITLE5=Tin Dog Road
TTITLE6=Isis Pine
TTITLE7=Would You Like To Dance
TTITLE8=Thundamoon
TTITLE9=A Wandering Minstrel
TTITLE10=Tin Roof
TTITLE11=Soliloquy
TTITLE12=Rochford Roads
TTITLE13=Song Of Yours
TTITLE14=Billabong Creek
TTITLE15=The Fires Of Midnight
EXTD=YEAR: 2005
EXTT0=
EXTT1=
EXTT2=
EXTT3=
EXTT4=
EXTT5=
EXTT6=
EXTT7=
EXTT8=
EXTT9=
EXTT10=
EXTT11=
EXTT12=
EXTT13=
EXTT14=
EXTT15=
PLAYORDER=
